<?xml version="1.0" encoding="utf-8"?>
<svg version="1.1" id="Layer_1" xmlns="http://www.w3.org/2000/svg" xmlns:xlink="http://www.w3.org/1999/xlink" x="0px" y="0px"
	 viewBox="0 0 40 40" style="enable-background:new 0 0 40 40;" xml:space="preserve">
<style type="text/css">
	.st0{clip-path:url(#SVGID_00000150806311131253688450000008923598582447545505_);fill:#FFFFFF;}

		.st1{clip-path:url(#SVGID_00000025444071502621740070000000443934386054211762_);fill:none;stroke:#000000;stroke-width:0.295;stroke-miterlimit:9.9998;}
	.st2{clip-path:url(#SVGID_00000003824382267693506120000013584658680104474298_);}
</style>
<g>
	<defs>
		<rect id="SVGID_1_" x="-80" y="-80.1" width="200" height="200.1"/>
	</defs>
	<clipPath id="SVGID_00000076601706041582628480000016509017410842638262_">
		<use xlink:href="#SVGID_1_"  style="overflow:visible;"/>
	</clipPath>
</g>
<g>
	<defs>
		<rect id="SVGID_00000127730710925330497970000015801389087362897567_" x="-80" y="-80.1" width="200" height="200.1"/>
	</defs>
	<clipPath id="SVGID_00000089545110776866742150000010859031894575097512_">
		<use xlink:href="#SVGID_00000127730710925330497970000015801389087362897567_"  style="overflow:visible;"/>
	</clipPath>
</g>
<g>
	<defs>
		<rect id="SVGID_00000166670153888102019760000000512163371909309116_" x="-80" y="-80.1" width="200" height="200.1"/>
	</defs>
	<clipPath id="SVGID_00000137099170863044240480000013380842146702354855_">
		<use xlink:href="#SVGID_00000166670153888102019760000000512163371909309116_"  style="overflow:visible;"/>
	</clipPath>
</g>
<g>
	<defs>
		<rect id="SVGID_00000083085581747049484880000006190340244011550643_" x="-80" y="-80.1" width="200" height="200.1"/>
	</defs>
	<clipPath id="SVGID_00000176752005841099912490000010580903198600994205_">
		<use xlink:href="#SVGID_00000083085581747049484880000006190340244011550643_"  style="overflow:visible;"/>
	</clipPath>
</g>
<g>
	<defs>
		<rect id="SVGID_00000030446348915627711520000008427376010216656283_" x="-80" y="-32.1" width="200" height="200.1"/>
	</defs>
	<clipPath id="SVGID_00000023242084505745631270000012985161730750460595_">
		<use xlink:href="#SVGID_00000030446348915627711520000008427376010216656283_"  style="overflow:visible;"/>
	</clipPath>
	<path style="clip-path:url(#SVGID_00000023242084505745631270000012985161730750460595_);fill:#FFFFFF;" d="M39.7,20.1
		c0,10.8-8.8,19.6-19.6,19.6c-10.8,0-19.6-8.8-19.6-19.6S9.3,0.6,20.1,0.6C30.9,0.6,39.7,9.3,39.7,20.1"/>
</g>
<g>
	<defs>
		<rect id="SVGID_00000017505450555000339530000006690160620304158864_" x="-80" y="-32.1" width="200" height="200.1"/>
	</defs>
	<clipPath id="SVGID_00000100356037238163796040000007657373432263950497_">
		<use xlink:href="#SVGID_00000017505450555000339530000006690160620304158864_"  style="overflow:visible;"/>
	</clipPath>

		<path style="clip-path:url(#SVGID_00000100356037238163796040000007657373432263950497_);fill:none;stroke:#000000;stroke-width:0.295;stroke-miterlimit:9.9998;" d="
		M39.7,20.1c0,10.8-8.8,19.6-19.6,19.6c-10.8,0-19.6-8.8-19.6-19.6S9.3,0.6,20.1,0.6C30.9,0.6,39.7,9.3,39.7,20.1L39.7,20.1z"/>
</g>
<g>
	<defs>
		<rect id="SVGID_00000168799501320412551010000016797906258306428604_" x="-80" y="-32.1" width="200" height="200.1"/>
	</defs>
	<clipPath id="SVGID_00000065036046923376349080000000343691152775537589_">
		<use xlink:href="#SVGID_00000168799501320412551010000016797906258306428604_"  style="overflow:visible;"/>
	</clipPath>
	<path style="clip-path:url(#SVGID_00000065036046923376349080000000343691152775537589_);" d="M27.1,26.5l-7.9-13.7l1-1.8l8.9,15.5
		C29.1,26.5,27.1,26.5,27.1,26.5z M23.3,26.5L17.3,16l1-1.7l7,12.2C25.3,26.5,23.3,26.5,23.3,26.5z M19.5,26.5l-4.2-7.2l1.1-1.8
		l5.1,8.9L19.5,26.5L19.5,26.5z M15.7,26.5l-2.2-3.9l1.1-1.8l3.2,5.6L15.7,26.5L15.7,26.5z M11.2,26.5l1.4-2.3l1.4,2.3H11.2z
		 M9.5,9.4V24c0,5.9,4.8,10.7,10.7,10.7c5.9,0,10.7-4.8,10.7-10.7V9.4L9.5,9.4L9.5,9.4z"/>
</g>
<g>
	<defs>
		<rect id="SVGID_00000158002907714960132370000003736388176840809351_" x="-80" y="-80.1" width="200" height="200.1"/>
	</defs>
	<clipPath id="SVGID_00000140004515089470890120000003721129546247476637_">
		<use xlink:href="#SVGID_00000158002907714960132370000003736388176840809351_"  style="overflow:visible;"/>
	</clipPath>
</g>
<g>
	<defs>
		<rect id="SVGID_00000016043597229667523910000001958021887272124082_" x="-80" y="-80.1" width="200" height="200.1"/>
	</defs>
	<clipPath id="SVGID_00000163773941814247974560000003999046636309789585_">
		<use xlink:href="#SVGID_00000016043597229667523910000001958021887272124082_"  style="overflow:visible;"/>
	</clipPath>
</g>
</svg>
