<svg xmlns="http://www.w3.org/2000/svg" version="1.1" width="120" height="120" viewBox="0 0 80 80">    <defs>        <clipPath id="clipPath5112">            <path d="m466.02,10.239,115.8,0,0,51.84-115.8,0,0-51.84z"/>        </clipPath>    </defs>    <g transform="matrix(0.390446,0,0,0.390446,10.996672,-140.40525)">        <g transform="matrix(7.3477076,0,0,7.3477076,-970.81873,821.3145)">            <g transform="matrix(1.25,0,0,-1.25,-466.52532,3.9224058)">                <g clip-path="url(#clipPath5112)">                    <g transform="translate(487.3641,53.408)">                        <path fill-rule="nonzero" fill="#e42a20"                              d="m0,0-2.938,0,0-2.387-4.892,0,0-4.977-3.68,0,0-7.309,3.68,0,0-4.978,4.892,0,0-2.38,2.59,0c6.052,0,11.391,4.885,11.391,10.988,0,6.061-4.981,11.043-11.043,11.043"/>                    </g>                </g>            </g>        </g>    </g></svg>